<svg xmlns="http://www.w3.org/2000/svg" viewBox="0 0 64 64" id="honeymoon"><path fill="#f2f2fc" d="M43.25 50.763a28.62 28.62 0 0 0 12.807-3.005C50.921 55.589 42.065 60.763 32 60.763c-15.879 0-28.75-12.871-28.75-28.75 0-11.276 6.492-21.034 15.942-25.745A28.617 28.617 0 0 0 14.5 22.013c0 15.879 12.871 28.75 28.75 28.75z"></path><path fill="#feb8f8" d="M44 37.016a1.834 1.834 0 0 1 1.747 1.919l-.202 4.355-4.355-.202a1.837 1.837 0 0 1-1.751-1.834l.002-.085a1.838 1.838 0 0 1 1.92-1.749l.687.032.031-.687A1.835 1.835 0 0 1 44 37.016zm-.53-29.334c.341.341.617.76.799 1.241l.465 1.231 1.23-.464a3.506 3.506 0 0 1 4.518 2.044 3.506 3.506 0 0 1-2.044 4.519l-1.852.699-4.394 1.656a1.654 1.654 0 0 1-2.131-.964l-2.355-6.246a3.507 3.507 0 0 1 5.764-3.716z"></path><path fill="#ec6385" d="M60.453 9.902a4.583 4.583 0 0 1-2.67 5.903l-8.16 3.076a2.16 2.16 0 0 1-2.784-1.259l-.254-.671 1.852-.699a3.508 3.508 0 0 0-2.474-6.563l-1.23.464-.465-1.231a3.478 3.478 0 0 0-.799-1.241 4.585 4.585 0 0 1 4.58-4.418 4.581 4.581 0 0 1 4.286 2.966l.606 1.607 1.609-.606a4.583 4.583 0 0 1 5.903 2.672zM43.25 29.373a2.382 2.382 0 0 1-2.271 2.377l-5.65.263-.262-5.65a2.38 2.38 0 1 1 4.757-.221l.043.892.891-.041a2.381 2.381 0 0 1 2.492 2.38z"></path><circle cx="52" cy="37.013" r="1.25"></circle><circle cx="45.75" cy="23.263" r="1.25"></circle><circle cx="34.5" cy="37.013" r="1.25"></circle><circle cx="32" cy="22.013" r="1.25"></circle><circle cx="30.75" cy="8.263" r="1.25"></circle><path d="M32 61.388c-7.847 0-15.223-3.055-20.771-8.603C5.68 47.236 2.625 39.86 2.625 32.013a29.278 29.278 0 0 1 4.524-15.668A29.477 29.477 0 0 1 18.913 5.709a.625.625 0 0 1 .801.902 28.012 28.012 0 0 0-4.59 15.402c0 15.508 12.617 28.125 28.125 28.125 4.4 0 8.615-.989 12.529-2.939a.625.625 0 0 1 .801.902C51.123 56.421 41.934 61.388 32 61.388zM17.468 7.927C9.028 13.007 3.875 22.04 3.875 32.013c0 15.508 12.617 28.125 28.125 28.125a28.05 28.05 0 0 0 22.203-10.86 29.098 29.098 0 0 1-10.954 2.11c-7.847 0-15.223-3.055-20.771-8.603s-8.603-12.925-8.603-20.771a29.27 29.27 0 0 1 3.593-14.087zM48.86 19.648c-.39 0-.78-.083-1.146-.249a2.766 2.766 0 0 1-1.458-1.555l-.254-.671a.625.625 0 0 1 1.17-.442l.254.671c.145.384.43.688.804.857.374.169.791.182 1.174.038l8.16-3.076a3.978 3.978 0 0 0 2.562-3.703 3.96 3.96 0 0 0-5.353-3.702l-1.609.606a.625.625 0 0 1-.805-.364l-.608-1.608a3.976 3.976 0 0 0-3.701-2.562c-.476 0-.946.086-1.395.256a3.954 3.954 0 0 0-2.56 3.559.625.625 0 0 1-1.25-.019v-.025a5.2 5.2 0 0 1 3.368-4.684 5.186 5.186 0 0 1 1.837-.336 5.23 5.23 0 0 1 4.871 3.371l.386 1.023 1.024-.386a5.213 5.213 0 0 1 7.044 4.873 5.234 5.234 0 0 1-3.371 4.872l-8.16 3.076a2.82 2.82 0 0 1-.984.18z"></path><path d="M41.607 19.341c-.319 0-.638-.068-.938-.204a2.265 2.265 0 0 1-1.193-1.272l-2.355-6.246a4.112 4.112 0 0 1-.266-1.458 4.153 4.153 0 0 1 2.674-3.866 4.14 4.14 0 0 1 4.382.945c.416.416.733.908.942 1.463l.244.646.645-.243A4.112 4.112 0 0 1 47.2 8.84a4.15 4.15 0 0 1 3.866 2.675 4.137 4.137 0 0 1-2.408 5.324l-6.246 2.355a2.287 2.287 0 0 1-.805.147zm-.622-12.062c-.341 0-.685.06-1.015.185a2.897 2.897 0 0 0-1.866 2.697c0 .348.063.69.186 1.017l2.355 6.246c.097.257.288.461.539.574.25.113.53.122.787.025l6.246-2.355a2.886 2.886 0 0 0 1.68-3.713 2.895 2.895 0 0 0-2.696-1.866c-.348 0-.69.063-1.017.186l-1.23.464a.625.625 0 0 1-.805-.364l-.465-1.231a2.853 2.853 0 0 0-.656-1.02 2.893 2.893 0 0 0-2.043-.845zm-5.657 25.359a.625.625 0 0 1-.624-.596l-.263-5.65a2.99 2.99 0 0 1 .781-2.165 2.985 2.985 0 0 1 2.083-.978l.017-.001c.041-.001.082-.003.124-.003a3 3 0 0 1 3.001 2.866l.013.268.268-.012a2.986 2.986 0 0 1 2.164.78 2.988 2.988 0 0 1 .982 2.224 3.003 3.003 0 0 1-2.867 3.002l-5.65.262c-.009.003-.019.003-.029.003zm2.119-8.141-.083.002a1.74 1.74 0 0 0-1.218.571 1.745 1.745 0 0 0-.456 1.265l.234 5.026 5.026-.233a1.754 1.754 0 0 0 1.675-1.753l-.002-.091a1.746 1.746 0 0 0-.571-1.209 1.75 1.75 0 0 0-1.265-.456l-.891.041a.628.628 0 0 1-.653-.595l-.043-.893a1.752 1.752 0 0 0-1.753-1.675zm8.098 19.417-.029-.001-4.355-.202a2.456 2.456 0 0 1-2.344-2.565 2.468 2.468 0 0 1 2.573-2.351l.063.003.003-.062a2.458 2.458 0 0 1 2.567-2.345c.662.03 1.268.314 1.71.8.443.486.67 1.116.639 1.773l-.203 4.355a.624.624 0 0 1-.624.595zm-4.269-3.872c-.642 0-1.18.507-1.21 1.155l-.002.056c0 .649.507 1.18 1.155 1.209l3.731.173.173-3.731a1.203 1.203 0 0 0-.315-.872 1.2 1.2 0 0 0-.837-.393l-.059-.002a1.21 1.21 0 0 0-1.208 1.156l-.031.687a.624.624 0 0 1-.654.596l-.687-.033-.056-.001z"></path></svg>